<svg width="3491" height="1242" viewBox="0 0 3491 1242" fill="none" xmlns="http://www.w3.org/2000/svg">
<rect width="3491" height="1242" fill="black"/>
<path d="M256.408 578.168C289.24 578.168 310.264 559.16 310.264 533.816C310.264 512.792 296.728 498.68 269.656 491.768L244.312 485.144C230.488 481.688 223.288 475.352 223.288 466.136C223.288 455.768 231.64 448.28 245.752 448.28C260.728 448.28 275.416 456.92 278.872 473.624H306.808C302.776 445.976 280.312 424.952 246.04 424.952C216.376 424.952 194.776 442.232 194.776 469.016C194.776 490.04 208.312 503.864 234.52 510.488L261.592 517.112C275.416 520.856 281.752 527.192 281.752 536.12C281.752 547.352 271.96 554.84 256.12 554.84C237.976 554.84 223.576 546.2 220.12 529.496H192.184C197.368 557.432 220.696 578.168 256.408 578.168ZM376.99 575H404.926V549.368H385.63C376.702 549.368 371.23 545.048 371.23 536.984V453.752H404.926V428.12H371.23V384.92H342.142V428.12H314.206V453.752H342.142V543.32C342.142 561.752 354.526 575 376.99 575ZM415.015 501.56C415.015 545.336 448.999 578.168 493.063 578.168C519.847 578.168 541.735 566.36 556.423 546.776L535.399 531.224C524.455 545.912 510.055 552.824 493.063 552.824C468.295 552.824 448.423 534.968 444.391 511.064H563.911V501.56C563.911 457.784 532.807 425.24 490.471 425.24C447.559 425.24 415.015 460.088 415.015 501.56ZM489.895 450.584C511.495 450.584 529.639 465.56 534.535 488.024H444.967C450.151 465.56 468.295 450.584 489.895 450.584ZM586.706 428.12V632.888H615.794V556.568C629.042 570.104 647.474 578.168 667.922 578.168C711.122 578.168 745.106 544.184 745.106 501.56C745.106 459.224 711.122 424.664 667.922 424.664C647.474 424.664 628.754 433.016 615.506 446.552V428.12H586.706ZM615.218 501.56C615.218 473.336 637.682 450.584 665.906 450.584C693.554 450.584 716.306 473.336 716.306 501.56C716.306 529.784 693.554 552.536 665.906 552.536C637.97 552.536 615.218 529.784 615.218 501.56ZM796.919 487.736C796.919 465.848 811.895 451.16 832.919 451.16C853.655 451.16 867.479 465.56 867.479 486.872V575H896.567V481.112C896.567 449.72 873.815 424.952 840.407 424.952C822.839 424.952 807.287 432.152 796.919 444.248V373.4H767.831V575H796.919V487.736ZM919.296 501.56C919.296 545.336 953.28 578.168 997.344 578.168C1024.13 578.168 1046.02 566.36 1060.7 546.776L1039.68 531.224C1028.74 545.912 1014.34 552.824 997.344 552.824C972.576 552.824 952.704 534.968 948.672 511.064H1068.19V501.56C1068.19 457.784 1037.09 425.24 994.752 425.24C951.84 425.24 919.296 460.088 919.296 501.56ZM994.176 450.584C1015.78 450.584 1033.92 465.56 1038.82 488.024H949.248C954.432 465.56 972.576 450.584 994.176 450.584ZM1219.72 481.112C1219.72 449.72 1196.97 424.952 1163.28 424.952C1145.71 424.952 1130.44 432.152 1120.08 444.248V428.12H1090.99V575H1120.08V487.736C1120.08 465.848 1135.05 451.16 1156.08 451.16C1176.81 451.16 1190.64 465.56 1190.64 486.872V575H1219.72V481.112ZM1303.22 578.168C1336.05 578.168 1357.08 559.16 1357.08 533.816C1357.08 512.792 1343.54 498.68 1316.47 491.768L1291.12 485.144C1277.3 481.688 1270.1 475.352 1270.1 466.136C1270.1 455.768 1278.45 448.28 1292.56 448.28C1307.54 448.28 1322.23 456.92 1325.68 473.624H1353.62C1349.59 445.976 1327.12 424.952 1292.85 424.952C1263.19 424.952 1241.59 442.232 1241.59 469.016C1241.59 490.04 1255.12 503.864 1281.33 510.488L1308.4 517.112C1322.23 520.856 1328.56 527.192 1328.56 536.12C1328.56 547.352 1318.77 554.84 1302.93 554.84C1284.79 554.84 1270.39 546.2 1266.93 529.496H1239C1244.18 557.432 1267.51 578.168 1303.22 578.168ZM1370.39 534.392C1370.39 560.024 1391.7 578.168 1420.5 578.168C1440.08 578.168 1456.5 570.104 1466.29 556.568C1470.04 568.088 1480.4 575 1494.52 575H1508.92V549.368H1501.43C1495.67 549.368 1492.79 546.488 1492.79 541.016V474.776C1492.79 444.824 1471.19 425.528 1438.07 425.528C1416.18 425.528 1396.88 431.864 1381.62 444.824L1394.58 465.848C1406.96 456.056 1419.92 451.736 1434.04 451.736C1453.33 451.736 1464.28 461.816 1464.28 478.52V488.024L1418.48 491.48C1387.96 493.496 1370.39 508.76 1370.39 534.392ZM1398.32 534.104C1398.32 522.008 1406.68 514.808 1422.8 513.656L1464.28 510.2V522.296C1464.28 540.728 1447.28 555.416 1426.26 555.416C1409.84 555.416 1398.32 546.776 1398.32 534.104ZM1656.22 481.112C1656.22 449.72 1633.47 424.952 1599.78 424.952C1582.21 424.952 1566.94 432.152 1556.58 444.248V428.12H1527.49V575H1556.58V487.736C1556.58 465.848 1571.55 451.16 1592.58 451.16C1613.31 451.16 1627.14 465.56 1627.14 486.872V575H1656.22V481.112ZM1765.93 428.12L1730.5 531.512L1701.13 428.12H1670.31L1714.95 575H1741.16L1777.45 468.728L1814.02 575H1840.23L1884.58 428.12H1854.92L1825.26 531.512L1790.12 428.12H1765.93ZM2048.28 501.56C2048.28 459.224 2013.14 424.952 1969.36 424.952C1925.59 424.952 1890.45 459.224 1890.45 501.56C1890.45 543.896 1925.59 578.456 1969.36 578.456C2013.14 578.456 2048.28 543.896 2048.28 501.56ZM2019.19 501.56C2019.19 530.072 1997.01 552.536 1969.36 552.536C1941.72 552.536 1919.54 530.072 1919.54 501.56C1919.54 473.336 1941.72 450.872 1969.36 450.872C1997.01 450.872 2019.19 473.336 2019.19 501.56ZM2073.72 542.168C2063.93 542.168 2055.87 550.232 2055.87 560.024C2055.87 570.104 2063.93 577.88 2073.72 577.88C2083.8 577.88 2091.58 570.104 2091.58 560.024C2091.58 550.232 2083.8 542.168 2073.72 542.168ZM2257.26 575V373.4H2228.17V446.552C2214.92 433.016 2196.49 424.952 2176.33 424.952C2133.13 424.952 2098.86 459.224 2098.86 501.848C2098.86 544.184 2132.84 578.456 2176.33 578.456C2196.78 578.456 2215.21 570.104 2228.46 556.568V575H2257.26ZM2228.75 501.848C2228.75 530.072 2206.28 552.824 2178.35 552.824C2150.41 552.824 2127.95 530.072 2127.95 501.848C2127.95 473.336 2150.41 450.872 2178.35 450.872C2206.28 450.872 2228.75 473.336 2228.75 501.848ZM2279.98 501.56C2279.98 545.336 2313.97 578.168 2358.03 578.168C2384.82 578.168 2406.7 566.36 2421.39 546.776L2400.37 531.224C2389.42 545.912 2375.02 552.824 2358.03 552.824C2333.26 552.824 2313.39 534.968 2309.36 511.064H2428.88V501.56C2428.88 457.784 2397.78 425.24 2355.44 425.24C2312.53 425.24 2279.98 460.088 2279.98 501.56ZM2354.86 450.584C2376.46 450.584 2394.61 465.56 2399.5 488.024H2309.94C2315.12 465.56 2333.26 450.584 2354.86 450.584ZM2491.03 575H2515.51L2577.72 428.12H2547.19L2503.42 535.832L2459.64 428.12H2428.25L2491.03 575Z" fill="white"/>
<path d="M198.376 767V716.6H190.816V767H198.376ZM220.2 767H227.4V762.392C230.712 765.776 235.392 767.864 240.504 767.864C251.304 767.864 259.8 759.296 259.8 748.712C259.8 738.056 251.304 729.488 240.504 729.488C235.392 729.488 230.784 731.576 227.472 734.96V716.6H220.2V767ZM227.328 748.712C227.328 741.584 233.016 735.968 240 735.968C246.912 735.968 252.6 741.584 252.6 748.712C252.6 755.768 246.912 761.456 240 761.456C232.944 761.456 227.328 755.768 227.328 748.712ZM265.481 753.752C265.481 761.6 271.169 767.72 279.593 767.72C283.985 767.72 287.873 765.92 290.393 762.896V767H297.665V730.28H290.393V752.096C290.393 757.496 286.649 761.312 281.393 761.312C276.209 761.312 272.753 757.496 272.753 752.384V730.28H265.481V753.752ZM308.388 725.168C310.764 725.168 312.636 723.224 312.636 720.776C312.636 718.4 310.764 716.456 308.388 716.456C305.939 716.456 303.996 718.4 303.996 720.776C303.996 723.224 305.939 725.168 308.388 725.168ZM311.988 730.28H304.716V767H311.988V730.28ZM326.331 767V716.6H319.059V767H326.331ZM371.635 767V716.6H364.363V734.888C361.051 731.504 356.443 729.488 351.403 729.488C340.603 729.488 332.035 738.056 332.035 748.712C332.035 759.296 340.531 767.864 351.403 767.864C356.515 767.864 361.123 765.776 364.435 762.392V767H371.635ZM364.507 748.712C364.507 755.768 358.891 761.456 351.907 761.456C344.923 761.456 339.307 755.768 339.307 748.712C339.307 741.584 344.923 735.968 351.907 735.968C358.891 735.968 364.507 741.584 364.507 748.712ZM390.434 736.688H397.49V767H404.762V736.688H412.538V730.352H404.762V724.16C404.762 722.144 405.842 721.136 407.57 721.136H412.538V714.728H406.346C400.586 714.728 397.49 718.328 397.49 723.296V730.352H390.434V736.688ZM416.934 753.752C416.934 761.6 422.622 767.72 431.046 767.72C435.438 767.72 439.326 765.92 441.846 762.896V767H449.118V730.28H441.846V752.096C441.846 757.496 438.102 761.312 432.846 761.312C427.662 761.312 424.206 757.496 424.206 752.384V730.28H416.934V753.752ZM463.441 767V716.6H456.169V767H463.441ZM477.784 767V716.6H470.512V767H477.784ZM498.68 767.792C506.888 767.792 512.144 763.04 512.144 756.704C512.144 751.448 508.76 747.92 501.992 746.192L495.656 744.536C492.2 743.672 490.4 742.088 490.4 739.784C490.4 737.192 492.488 735.32 496.016 735.32C499.76 735.32 503.432 737.48 504.296 741.656H511.28C510.272 734.744 504.656 729.488 496.088 729.488C488.672 729.488 483.272 733.808 483.272 740.504C483.272 745.76 486.656 749.216 493.208 750.872L499.976 752.528C503.432 753.464 505.016 755.048 505.016 757.28C505.016 760.088 502.568 761.96 498.608 761.96C494.072 761.96 490.472 759.8 489.608 755.624H482.624C483.92 762.608 489.752 767.792 498.68 767.792ZM528.826 767H535.81V760.592H530.986C528.754 760.592 527.386 759.512 527.386 757.496V736.688H535.81V730.28H527.386V719.48H520.114V730.28H513.13V736.688H520.114V759.08C520.114 763.688 523.21 767 528.826 767ZM538.464 756.848C538.464 763.256 543.792 767.792 550.992 767.792C555.888 767.792 559.992 765.776 562.44 762.392C563.376 765.272 565.968 767 569.496 767H573.096V760.592H571.224C569.784 760.592 569.064 759.872 569.064 758.504V741.944C569.064 734.456 563.664 729.632 555.384 729.632C549.912 729.632 545.088 731.216 541.272 734.456L544.512 739.712C547.608 737.264 550.848 736.184 554.376 736.184C559.2 736.184 561.936 738.704 561.936 742.88V745.256L550.488 746.12C542.856 746.624 538.464 750.44 538.464 756.848ZM545.448 756.776C545.448 753.752 547.536 751.952 551.568 751.664L561.936 750.8V753.824C561.936 758.432 557.688 762.104 552.432 762.104C548.328 762.104 545.448 759.944 545.448 756.776ZM582.94 748.712C582.94 741.512 588.484 735.968 595.396 735.968C599.644 735.968 603.316 738.056 605.692 741.296L611.02 737.48C607.42 732.656 602.308 729.488 595.396 729.488C584.236 729.488 575.668 738.056 575.668 748.712C575.668 759.296 584.236 767.864 595.396 767.864C602.308 767.864 607.42 764.696 611.02 759.944L605.692 756.056C603.316 759.368 599.644 761.456 595.396 761.456C588.484 761.456 582.94 755.768 582.94 748.712ZM615.497 716.6V767H622.769V750.152L637.961 767H647.105L629.537 747.992L646.241 730.28H637.601L622.769 746.48V716.6H615.497ZM702.526 767V716.6H695.254V734.888C691.942 731.504 687.334 729.488 682.294 729.488C671.494 729.488 662.926 738.056 662.926 748.712C662.926 759.296 671.422 767.864 682.294 767.864C687.406 767.864 692.014 765.776 695.326 762.392V767H702.526ZM695.398 748.712C695.398 755.768 689.782 761.456 682.798 761.456C675.814 761.456 670.198 755.768 670.198 748.712C670.198 741.584 675.814 735.968 682.798 735.968C689.782 735.968 695.398 741.584 695.398 748.712ZM707.847 756.848C707.847 763.256 713.175 767.792 720.375 767.792C725.271 767.792 729.375 765.776 731.823 762.392C732.759 765.272 735.351 767 738.879 767H742.479V760.592H740.607C739.167 760.592 738.447 759.872 738.447 758.504V741.944C738.447 734.456 733.047 729.632 724.767 729.632C719.295 729.632 714.471 731.216 710.655 734.456L713.895 739.712C716.991 737.264 720.231 736.184 723.759 736.184C728.583 736.184 731.319 738.704 731.319 742.88V745.256L719.871 746.12C712.239 746.624 707.847 750.44 707.847 756.848ZM714.831 756.776C714.831 753.752 716.919 751.952 720.951 751.664L731.319 750.8V753.824C731.319 758.432 727.071 762.104 721.815 762.104C717.711 762.104 714.831 759.944 714.831 756.776ZM758.466 767H765.45V760.592H760.626C758.394 760.592 757.026 759.512 757.026 757.496V736.688H765.45V730.28H757.026V719.48H749.754V730.28H742.77V736.688H749.754V759.08C749.754 763.688 752.85 767 758.466 767ZM768.105 756.848C768.105 763.256 773.433 767.792 780.633 767.792C785.529 767.792 789.633 765.776 792.081 762.392C793.017 765.272 795.609 767 799.137 767H802.737V760.592H800.865C799.425 760.592 798.705 759.872 798.705 758.504V741.944C798.705 734.456 793.305 729.632 785.025 729.632C779.553 729.632 774.729 731.216 770.913 734.456L774.153 739.712C777.249 737.264 780.489 736.184 784.017 736.184C788.841 736.184 791.577 738.704 791.577 742.88V745.256L780.129 746.12C772.497 746.624 768.105 750.44 768.105 756.848ZM775.089 756.776C775.089 753.752 777.177 751.952 781.209 751.664L791.577 750.8V753.824C791.577 758.432 787.329 762.104 782.073 762.104C777.969 762.104 775.089 759.944 775.089 756.776ZM806.3 748.64H831.068V742.376H806.3V748.64ZM875.987 767V716.6H868.715V734.888C865.403 731.504 860.795 729.488 855.755 729.488C844.955 729.488 836.387 738.056 836.387 748.712C836.387 759.296 844.883 767.864 855.755 767.864C860.867 767.864 865.475 765.776 868.787 762.392V767H875.987ZM868.859 748.712C868.859 755.768 863.243 761.456 856.259 761.456C849.275 761.456 843.659 755.768 843.659 748.712C843.659 741.584 849.275 735.968 856.259 735.968C863.243 735.968 868.859 741.584 868.859 748.712ZM901.54 736.76V729.992H899.02C894.988 729.992 892.036 731.864 890.236 734.816V730.28H883.036V767H890.308V746.12C890.308 740.432 893.764 736.76 898.516 736.76H901.54ZM910.052 725.168C912.428 725.168 914.3 723.224 914.3 720.776C914.3 718.4 912.428 716.456 910.052 716.456C907.604 716.456 905.66 718.4 905.66 720.776C905.66 723.224 907.604 725.168 910.052 725.168ZM913.652 730.28H906.38V767H913.652V730.28ZM932.531 767H938.651L954.203 730.28H946.571L935.627 757.208L924.683 730.28H916.835L932.531 767ZM954.019 748.64C954.019 759.584 962.515 767.792 973.531 767.792C980.227 767.792 985.699 764.84 989.371 759.944L984.115 756.056C981.379 759.728 977.779 761.456 973.531 761.456C967.339 761.456 962.371 756.992 961.363 751.016H991.243V748.64C991.243 737.696 983.467 729.56 972.883 729.56C962.155 729.56 954.019 738.272 954.019 748.64ZM972.739 735.896C978.139 735.896 982.675 739.64 983.899 745.256H961.507C962.803 739.64 967.339 735.896 972.739 735.896ZM1029.13 743.528C1029.13 735.68 1023.44 729.488 1015.01 729.488C1010.62 729.488 1006.81 731.288 1004.21 734.312V730.28H996.942V767H1004.21V745.184C1004.21 739.712 1007.96 736.04 1013.21 736.04C1018.4 736.04 1021.85 739.64 1021.85 744.968V767H1029.13V743.528ZM1064.41 767.792C1072.62 767.792 1077.88 763.04 1077.88 756.704C1077.88 751.448 1074.49 747.92 1067.73 746.192L1061.39 744.536C1057.93 743.672 1056.13 742.088 1056.13 739.784C1056.13 737.192 1058.22 735.32 1061.75 735.32C1065.49 735.32 1069.17 737.48 1070.03 741.656H1077.01C1076.01 734.744 1070.39 729.488 1061.82 729.488C1054.41 729.488 1049.01 733.808 1049.01 740.504C1049.01 745.76 1052.39 749.216 1058.94 750.872L1065.71 752.528C1069.17 753.464 1070.75 755.048 1070.75 757.28C1070.75 760.088 1068.3 761.96 1064.34 761.96C1059.81 761.96 1056.21 759.8 1055.34 755.624H1048.36C1049.65 762.608 1055.49 767.792 1064.41 767.792ZM1121.02 748.64C1121.02 738.056 1112.24 729.488 1101.29 729.488C1090.35 729.488 1081.57 738.056 1081.57 748.64C1081.57 759.224 1090.35 767.864 1101.29 767.864C1112.24 767.864 1121.02 759.224 1121.02 748.64ZM1113.75 748.64C1113.75 755.768 1108.21 761.384 1101.29 761.384C1094.38 761.384 1088.84 755.768 1088.84 748.64C1088.84 741.584 1094.38 735.968 1101.29 735.968C1108.21 735.968 1113.75 741.584 1113.75 748.64ZM1123.16 736.688H1130.22V767H1137.49V736.688H1145.26V730.352H1137.49V724.16C1137.49 722.144 1138.57 721.136 1140.3 721.136H1145.26V714.728H1139.07C1133.31 714.728 1130.22 718.328 1130.22 723.296V730.352H1123.16V736.688ZM1163.19 767H1170.17V760.592H1165.35C1163.11 760.592 1161.75 759.512 1161.75 757.496V736.688H1170.17V730.28H1161.75V719.48H1154.47V730.28H1147.49V736.688H1154.47V759.08C1154.47 763.688 1157.57 767 1163.19 767ZM1195.42 730.28L1186.56 756.128L1179.22 730.28H1171.52L1182.68 767H1189.23L1198.3 740.432L1207.44 767H1214L1225.08 730.28H1217.67L1210.25 756.128L1201.47 730.28H1195.42ZM1225.98 756.848C1225.98 763.256 1231.31 767.792 1238.51 767.792C1243.4 767.792 1247.51 765.776 1249.96 762.392C1250.89 765.272 1253.48 767 1257.01 767H1260.61V760.592H1258.74C1257.3 760.592 1256.58 759.872 1256.58 758.504V741.944C1256.58 734.456 1251.18 729.632 1242.9 729.632C1237.43 729.632 1232.6 731.216 1228.79 734.456L1232.03 739.712C1235.12 737.264 1238.36 736.184 1241.89 736.184C1246.72 736.184 1249.45 738.704 1249.45 742.88V745.256L1238 746.12C1230.37 746.624 1225.98 750.44 1225.98 756.848ZM1232.96 756.776C1232.96 753.752 1235.05 751.952 1239.08 751.664L1249.45 750.8V753.824C1249.45 758.432 1245.2 762.104 1239.95 762.104C1235.84 762.104 1232.96 759.944 1232.96 756.776ZM1283.76 736.76V729.992H1281.24C1277.21 729.992 1274.25 731.864 1272.45 734.816V730.28H1265.25V767H1272.53V746.12C1272.53 740.432 1275.98 736.76 1280.73 736.76H1283.76ZM1285.61 748.64C1285.61 759.584 1294.11 767.792 1305.13 767.792C1311.82 767.792 1317.29 764.84 1320.97 759.944L1315.71 756.056C1312.97 759.728 1309.37 761.456 1305.13 761.456C1298.93 761.456 1293.97 756.992 1292.96 751.016H1322.84V748.64C1322.84 737.696 1315.06 729.56 1304.48 729.56C1293.75 729.56 1285.61 738.272 1285.61 748.64ZM1304.33 735.896C1309.73 735.896 1314.27 739.64 1315.49 745.256H1293.1C1294.4 739.64 1298.93 735.896 1304.33 735.896ZM1341.22 756.848C1341.22 763.256 1346.55 767.792 1353.75 767.792C1358.65 767.792 1362.75 765.776 1365.2 762.392C1366.13 765.272 1368.73 767 1372.25 767H1375.85V760.592H1373.98C1372.54 760.592 1371.82 759.872 1371.82 758.504V741.944C1371.82 734.456 1366.42 729.632 1358.14 729.632C1352.67 729.632 1347.85 731.216 1344.03 734.456L1347.27 739.712C1350.37 737.264 1353.61 736.184 1357.13 736.184C1361.96 736.184 1364.69 738.704 1364.69 742.88V745.256L1353.25 746.12C1345.61 746.624 1341.22 750.44 1341.22 756.848ZM1348.21 756.776C1348.21 753.752 1350.29 751.952 1354.33 751.664L1364.69 750.8V753.824C1364.69 758.432 1360.45 762.104 1355.19 762.104C1351.09 762.104 1348.21 759.944 1348.21 756.776ZM1412.68 743.528C1412.68 735.68 1406.99 729.488 1398.57 729.488C1394.18 729.488 1390.36 731.288 1387.77 734.312V730.28H1380.5V767H1387.77V745.184C1387.77 739.712 1391.51 736.04 1396.77 736.04C1401.95 736.04 1405.41 739.64 1405.41 744.968V767H1412.68V743.528ZM1457.96 767V716.6H1450.69V734.888C1447.38 731.504 1442.77 729.488 1437.73 729.488C1426.93 729.488 1418.36 738.056 1418.36 748.712C1418.36 759.296 1426.86 767.864 1437.73 767.864C1442.84 767.864 1447.45 765.776 1450.76 762.392V767H1457.96ZM1450.84 748.712C1450.84 755.768 1445.22 761.456 1438.24 761.456C1431.25 761.456 1425.64 755.768 1425.64 748.712C1425.64 741.584 1431.25 735.968 1438.24 735.968C1445.22 735.968 1450.84 741.584 1450.84 748.712ZM1504.48 716.6H1496.92L1475.54 767H1483.39L1488.79 753.752H1512.33L1517.73 767H1525.87L1504.48 716.6ZM1491.52 747.128L1500.59 725.096L1509.59 747.128H1491.52ZM1536.92 767V716.6H1529.36V767H1536.92ZM1572.56 767.792C1580.77 767.792 1586.03 763.04 1586.03 756.704C1586.03 751.448 1582.64 747.92 1575.87 746.192L1569.54 744.536C1566.08 743.672 1564.28 742.088 1564.28 739.784C1564.28 737.192 1566.37 735.32 1569.9 735.32C1573.64 735.32 1577.31 737.48 1578.18 741.656H1585.16C1584.15 734.744 1578.54 729.488 1569.97 729.488C1562.55 729.488 1557.15 733.808 1557.15 740.504C1557.15 745.76 1560.54 749.216 1567.09 750.872L1573.86 752.528C1577.31 753.464 1578.9 755.048 1578.9 757.28C1578.9 760.088 1576.45 761.96 1572.49 761.96C1567.95 761.96 1564.35 759.8 1563.49 755.624H1556.51C1557.8 762.608 1563.63 767.792 1572.56 767.792ZM1629.17 748.64C1629.17 738.056 1620.39 729.488 1609.44 729.488C1598.5 729.488 1589.71 738.056 1589.71 748.64C1589.71 759.224 1598.5 767.864 1609.44 767.864C1620.39 767.864 1629.17 759.224 1629.17 748.64ZM1621.9 748.64C1621.9 755.768 1616.35 761.384 1609.44 761.384C1602.53 761.384 1596.99 755.768 1596.99 748.64C1596.99 741.584 1602.53 735.968 1609.44 735.968C1616.35 735.968 1621.9 741.584 1621.9 748.64ZM1642.16 767V716.6H1634.89V767H1642.16ZM1649.23 753.752C1649.23 761.6 1654.92 767.72 1663.34 767.72C1667.74 767.72 1671.62 765.92 1674.14 762.896V767H1681.42V730.28H1674.14V752.096C1674.14 757.496 1670.4 761.312 1665.14 761.312C1659.96 761.312 1656.5 757.496 1656.5 752.384V730.28H1649.23V753.752ZM1701.5 767H1708.48V760.592H1703.66C1701.43 760.592 1700.06 759.512 1700.06 757.496V736.688H1708.48V730.28H1700.06V719.48H1692.79V730.28H1685.8V736.688H1692.79V759.08C1692.79 763.688 1695.88 767 1701.5 767ZM1716.54 725.168C1718.91 725.168 1720.78 723.224 1720.78 720.776C1720.78 718.4 1718.91 716.456 1716.54 716.456C1714.09 716.456 1712.14 718.4 1712.14 720.776C1712.14 723.224 1714.09 725.168 1716.54 725.168ZM1720.14 730.28H1712.86V767H1720.14V730.28ZM1765.3 748.64C1765.3 738.056 1756.51 729.488 1745.57 729.488C1734.62 729.488 1725.84 738.056 1725.84 748.64C1725.84 759.224 1734.62 767.864 1745.57 767.864C1756.51 767.864 1765.3 759.224 1765.3 748.64ZM1758.02 748.64C1758.02 755.768 1752.48 761.384 1745.57 761.384C1738.66 761.384 1733.11 755.768 1733.11 748.64C1733.11 741.584 1738.66 735.968 1745.57 735.968C1752.48 735.968 1758.02 741.584 1758.02 748.64ZM1803.2 743.528C1803.2 735.68 1797.51 729.488 1789.08 729.488C1784.69 729.488 1780.88 731.288 1778.28 734.312V730.28H1771.01V767H1778.28V745.184C1778.28 739.712 1782.03 736.04 1787.28 736.04C1792.47 736.04 1795.92 739.64 1795.92 744.968V767H1803.2V743.528ZM1824.07 767.792C1832.28 767.792 1837.53 763.04 1837.53 756.704C1837.53 751.448 1834.15 747.92 1827.38 746.192L1821.05 744.536C1817.59 743.672 1815.79 742.088 1815.79 739.784C1815.79 737.192 1817.88 735.32 1821.41 735.32C1825.15 735.32 1828.82 737.48 1829.69 741.656H1836.67C1835.66 734.744 1830.05 729.488 1821.48 729.488C1814.06 729.488 1808.66 733.808 1808.66 740.504C1808.66 745.76 1812.05 749.216 1818.6 750.872L1825.37 752.528C1828.82 753.464 1830.41 755.048 1830.41 757.28C1830.41 760.088 1827.96 761.96 1824 761.96C1819.46 761.96 1815.86 759.8 1815 755.624H1808.01C1809.31 762.608 1815.14 767.792 1824.07 767.792Z" fill="#7DABA0"/>
<path d="M258.764 1015H262.364V1012.7C264.02 1014.39 266.36 1015.43 268.916 1015.43C274.316 1015.43 278.564 1011.15 278.564 1005.86C278.564 1000.53 274.316 996.244 268.916 996.244C266.36 996.244 264.056 997.288 262.4 998.98V989.8H258.764V1015ZM262.328 1005.86C262.328 1002.29 265.172 999.484 268.664 999.484C272.12 999.484 274.964 1002.29 274.964 1005.86C274.964 1009.38 272.12 1012.23 268.664 1012.23C265.136 1012.23 262.328 1009.38 262.328 1005.86ZM285.041 1015V989.8H281.405V1015H285.041ZM307.621 1005.82C307.621 1000.53 303.229 996.244 297.757 996.244C292.285 996.244 287.893 1000.53 287.893 1005.82C287.893 1011.11 292.285 1015.43 297.757 1015.43C303.229 1015.43 307.621 1011.11 307.621 1005.82ZM303.985 1005.82C303.985 1009.38 301.213 1012.19 297.757 1012.19C294.301 1012.19 291.529 1009.38 291.529 1005.82C291.529 1002.29 294.301 999.484 297.757 999.484C301.213 999.484 303.985 1002.29 303.985 1005.82ZM329.379 996.64H325.743V998.908C324.087 997.252 321.855 996.244 319.335 996.244C314.043 996.244 309.795 1000.42 309.795 1005.68C309.795 1011 314.007 1015.18 319.335 1015.18C321.819 1015.18 324.051 1014.21 325.707 1012.59V1015.29C325.707 1017.81 324.411 1019.14 321.783 1019.14H317.967V1022.24H322.575C326.751 1022.24 329.379 1019.68 329.379 1015.58V996.64ZM313.395 1005.68C313.395 1002.26 316.167 999.448 319.587 999.448C323.007 999.448 325.779 1002.22 325.779 1005.68C325.779 1009.17 323.043 1011.98 319.587 1011.98C316.167 1011.98 313.395 1009.2 313.395 1005.68ZM334.673 1010.9C333.449 1010.9 332.441 1011.9 332.441 1013.13C332.441 1014.39 333.449 1015.36 334.673 1015.36C335.933 1015.36 336.905 1014.39 336.905 1013.13C336.905 1011.9 335.933 1010.9 334.673 1010.9ZM346.149 1015.4C350.253 1015.4 352.881 1013.02 352.881 1009.85C352.881 1007.22 351.189 1005.46 347.805 1004.6L344.637 1003.77C342.909 1003.34 342.009 1002.54 342.009 1001.39C342.009 1000.1 343.053 999.16 344.817 999.16C346.689 999.16 348.525 1000.24 348.957 1002.33H352.449C351.945 998.872 349.137 996.244 344.853 996.244C341.145 996.244 338.445 998.404 338.445 1001.75C338.445 1004.38 340.137 1006.11 343.413 1006.94L346.797 1007.76C348.525 1008.23 349.317 1009.02 349.317 1010.14C349.317 1011.54 348.093 1012.48 346.113 1012.48C343.845 1012.48 342.045 1011.4 341.613 1009.31H338.121C338.769 1012.8 341.685 1015.4 346.149 1015.4ZM361.221 1015H364.713V1011.8H362.301C361.185 1011.8 360.501 1011.26 360.501 1010.25V999.844H364.713V996.64H360.501V991.24H356.865V996.64H353.373V999.844H356.865V1011.04C356.865 1013.34 358.413 1015 361.221 1015ZM365.975 1005.82C365.975 1011.29 370.223 1015.4 375.731 1015.4C379.079 1015.4 381.815 1013.92 383.651 1011.47L381.023 1009.53C379.655 1011.36 377.855 1012.23 375.731 1012.23C372.635 1012.23 370.151 1010 369.647 1007.01H384.587V1005.82C384.587 1000.35 380.699 996.28 375.407 996.28C370.043 996.28 365.975 1000.64 365.975 1005.82ZM375.335 999.448C378.035 999.448 380.303 1001.32 380.915 1004.13H369.719C370.367 1001.32 372.635 999.448 375.335 999.448ZM387.436 996.64V1022.24H391.072V1012.7C392.728 1014.39 395.032 1015.4 397.588 1015.4C402.988 1015.4 407.236 1011.15 407.236 1005.82C407.236 1000.53 402.988 996.208 397.588 996.208C395.032 996.208 392.692 997.252 391.036 998.944V996.64H387.436ZM391 1005.82C391 1002.29 393.808 999.448 397.336 999.448C400.792 999.448 403.636 1002.29 403.636 1005.82C403.636 1009.35 400.792 1012.19 397.336 1012.19C393.844 1012.19 391 1009.35 391 1005.82ZM413.713 1004.09C413.713 1001.36 415.585 999.52 418.213 999.52C420.805 999.52 422.533 1001.32 422.533 1003.98V1015H426.169V1003.26C426.169 999.34 423.325 996.244 419.149 996.244C416.953 996.244 415.009 997.144 413.713 998.656V989.8H410.077V1015H413.713V1004.09ZM429.01 1005.82C429.01 1011.29 433.258 1015.4 438.766 1015.4C442.114 1015.4 444.85 1013.92 446.686 1011.47L444.058 1009.53C442.69 1011.36 440.89 1012.23 438.766 1012.23C435.67 1012.23 433.186 1010 432.682 1007.01H447.622V1005.82C447.622 1000.35 443.734 996.28 438.442 996.28C433.078 996.28 429.01 1000.64 429.01 1005.82ZM438.37 999.448C441.07 999.448 443.338 1001.32 443.95 1004.13H432.754C433.402 1001.32 435.67 999.448 438.37 999.448ZM466.563 1003.26C466.563 999.34 463.719 996.244 459.507 996.244C457.311 996.244 455.403 997.144 454.107 998.656V996.64H450.471V1015H454.107V1004.09C454.107 1001.36 455.979 999.52 458.607 999.52C461.199 999.52 462.927 1001.32 462.927 1003.98V1015H466.563V1003.26ZM477 1015.4C481.104 1015.4 483.732 1013.02 483.732 1009.85C483.732 1007.22 482.04 1005.46 478.656 1004.6L475.488 1003.77C473.76 1003.34 472.86 1002.54 472.86 1001.39C472.86 1000.1 473.904 999.16 475.668 999.16C477.54 999.16 479.376 1000.24 479.808 1002.33H483.3C482.796 998.872 479.988 996.244 475.704 996.244C471.996 996.244 469.296 998.404 469.296 1001.75C469.296 1004.38 470.988 1006.11 474.264 1006.94L477.648 1007.76C479.376 1008.23 480.168 1009.02 480.168 1010.14C480.168 1011.54 478.944 1012.48 476.964 1012.48C474.696 1012.48 472.896 1011.4 472.464 1009.31H468.972C469.62 1012.8 472.536 1015.4 477 1015.4ZM485.396 1009.92C485.396 1013.13 488.06 1015.4 491.66 1015.4C494.108 1015.4 496.16 1014.39 497.384 1012.7C497.852 1014.14 499.148 1015 500.912 1015H502.712V1011.8H501.776C501.056 1011.8 500.696 1011.44 500.696 1010.75V1002.47C500.696 998.728 497.996 996.316 493.856 996.316C491.12 996.316 488.708 997.108 486.8 998.728L488.42 1001.36C489.968 1000.13 491.588 999.592 493.352 999.592C495.764 999.592 497.132 1000.85 497.132 1002.94V1004.13L491.408 1004.56C487.592 1004.81 485.396 1006.72 485.396 1009.92ZM488.888 1009.89C488.888 1008.38 489.932 1007.48 491.948 1007.33L497.132 1006.9V1008.41C497.132 1010.72 495.008 1012.55 492.38 1012.55C490.328 1012.55 488.888 1011.47 488.888 1009.89ZM521.126 1003.26C521.126 999.34 518.282 996.244 514.07 996.244C511.874 996.244 509.966 997.144 508.67 998.656V996.64H505.034V1015H508.67V1004.09C508.67 1001.36 510.542 999.52 513.17 999.52C515.762 999.52 517.49 1001.32 517.49 1003.98V1015H521.126V1003.26ZM534.839 996.64L530.411 1009.56L526.739 996.64H522.887L528.467 1015H531.743L536.279 1001.72L540.851 1015H544.127L549.671 996.64H545.963L542.255 1009.56L537.863 996.64H534.839ZM570.132 1005.82C570.132 1000.53 565.74 996.244 560.268 996.244C554.796 996.244 550.404 1000.53 550.404 1005.82C550.404 1011.11 554.796 1015.43 560.268 1015.43C565.74 1015.43 570.132 1011.11 570.132 1005.82ZM566.496 1005.82C566.496 1009.38 563.724 1012.19 560.268 1012.19C556.812 1012.19 554.04 1009.38 554.04 1005.82C554.04 1002.29 556.812 999.484 560.268 999.484C563.724 999.484 566.496 1002.29 566.496 1005.82ZM573.313 1010.9C572.089 1010.9 571.081 1011.9 571.081 1013.13C571.081 1014.39 572.089 1015.36 573.313 1015.36C574.573 1015.36 575.545 1014.39 575.545 1013.13C575.545 1011.9 574.573 1010.9 573.313 1010.9ZM596.255 1015V989.8H592.619V998.944C590.963 997.252 588.659 996.244 586.139 996.244C580.739 996.244 576.455 1000.53 576.455 1005.86C576.455 1011.15 580.703 1015.43 586.139 1015.43C588.695 1015.43 590.999 1014.39 592.655 1012.7V1015H596.255ZM592.691 1005.86C592.691 1009.38 589.883 1012.23 586.391 1012.23C582.899 1012.23 580.091 1009.38 580.091 1005.86C580.091 1002.29 582.899 999.484 586.391 999.484C589.883 999.484 592.691 1002.29 592.691 1005.86ZM599.096 1005.82C599.096 1011.29 603.344 1015.4 608.852 1015.4C612.2 1015.4 614.936 1013.92 616.772 1011.47L614.144 1009.53C612.776 1011.36 610.976 1012.23 608.852 1012.23C605.756 1012.23 603.272 1010 602.768 1007.01H617.708V1005.82C617.708 1000.35 613.82 996.28 608.528 996.28C603.164 996.28 599.096 1000.64 599.096 1005.82ZM608.456 999.448C611.156 999.448 613.424 1001.32 614.036 1004.13H602.84C603.488 1001.32 605.756 999.448 608.456 999.448ZM625.477 1015H628.537L636.313 996.64H632.497L627.025 1010.1L621.553 996.64H617.629L625.477 1015ZM257.9 1066.92C257.9 1070.13 260.564 1072.4 264.164 1072.4C266.612 1072.4 268.664 1071.39 269.888 1069.7C270.356 1071.14 271.652 1072 273.416 1072H275.216V1068.8H274.28C273.56 1068.8 273.2 1068.44 273.2 1067.75V1059.47C273.2 1055.73 270.5 1053.32 266.36 1053.32C263.624 1053.32 261.212 1054.11 259.304 1055.73L260.924 1058.36C262.472 1057.13 264.092 1056.59 265.856 1056.59C268.268 1056.59 269.636 1057.85 269.636 1059.94V1061.13L263.912 1061.56C260.096 1061.81 257.9 1063.72 257.9 1066.92ZM261.392 1066.89C261.392 1065.38 262.436 1064.48 264.452 1064.33L269.636 1063.9V1065.41C269.636 1067.72 267.512 1069.55 264.884 1069.55C262.832 1069.55 261.392 1068.47 261.392 1066.89ZM279.373 1051.08C280.561 1051.08 281.497 1050.11 281.497 1048.89C281.497 1047.7 280.561 1046.73 279.373 1046.73C278.149 1046.73 277.177 1047.7 277.177 1048.89C277.177 1050.11 278.149 1051.08 279.373 1051.08ZM281.173 1053.64H277.537V1072H281.173V1053.64ZM286.473 1067.9C285.249 1067.9 284.241 1068.9 284.241 1070.13C284.241 1071.39 285.249 1072.36 286.473 1072.36C287.733 1072.36 288.705 1071.39 288.705 1070.13C288.705 1068.9 287.733 1067.9 286.473 1067.9ZM297.949 1072.4C302.053 1072.4 304.681 1070.02 304.681 1066.85C304.681 1064.22 302.989 1062.46 299.605 1061.6L296.437 1060.77C294.709 1060.34 293.809 1059.54 293.809 1058.39C293.809 1057.1 294.853 1056.16 296.617 1056.16C298.489 1056.16 300.325 1057.24 300.757 1059.33H304.249C303.745 1055.87 300.937 1053.24 296.653 1053.24C292.945 1053.24 290.245 1055.4 290.245 1058.75C290.245 1061.38 291.937 1063.11 295.213 1063.94L298.597 1064.76C300.325 1065.23 301.117 1066.02 301.117 1067.14C301.117 1068.54 299.893 1069.48 297.913 1069.48C295.645 1069.48 293.845 1068.4 293.413 1066.31H289.921C290.569 1069.8 293.485 1072.4 297.949 1072.4ZM313.022 1072H316.514V1068.8H314.102C312.986 1068.8 312.302 1068.26 312.302 1067.25V1056.84H316.514V1053.64H312.302V1048.24H308.666V1053.64H305.174V1056.84H308.666V1068.04C308.666 1070.34 310.214 1072 313.022 1072ZM317.775 1062.82C317.775 1068.29 322.023 1072.4 327.531 1072.4C330.879 1072.4 333.615 1070.92 335.451 1068.47L332.823 1066.53C331.455 1068.36 329.655 1069.23 327.531 1069.23C324.435 1069.23 321.951 1067 321.447 1064.01H336.387V1062.82C336.387 1057.35 332.499 1053.28 327.207 1053.28C321.843 1053.28 317.775 1057.64 317.775 1062.82ZM327.135 1056.45C329.835 1056.45 332.103 1058.32 332.715 1061.13H321.519C322.167 1058.32 324.435 1056.45 327.135 1056.45ZM339.237 1053.64V1079.24H342.873V1069.7C344.529 1071.39 346.833 1072.4 349.389 1072.4C354.789 1072.4 359.037 1068.15 359.037 1062.82C359.037 1057.53 354.789 1053.21 349.389 1053.21C346.833 1053.21 344.493 1054.25 342.837 1055.94V1053.64H339.237ZM342.801 1062.82C342.801 1059.29 345.609 1056.45 349.137 1056.45C352.593 1056.45 355.437 1059.29 355.437 1062.82C355.437 1066.35 352.593 1069.19 349.137 1069.19C345.645 1069.19 342.801 1066.35 342.801 1062.82ZM365.513 1061.09C365.513 1058.36 367.385 1056.52 370.013 1056.52C372.605 1056.52 374.333 1058.32 374.333 1060.98V1072H377.969V1060.26C377.969 1056.34 375.125 1053.24 370.949 1053.24C368.753 1053.24 366.809 1054.14 365.513 1055.66V1046.8H361.877V1072H365.513V1061.09ZM380.81 1062.82C380.81 1068.29 385.058 1072.4 390.566 1072.4C393.914 1072.4 396.65 1070.92 398.486 1068.47L395.858 1066.53C394.49 1068.36 392.69 1069.23 390.566 1069.23C387.47 1069.23 384.986 1067 384.482 1064.01H399.422V1062.82C399.422 1057.35 395.534 1053.28 390.242 1053.28C384.878 1053.28 380.81 1057.64 380.81 1062.82ZM390.17 1056.45C392.87 1056.45 395.138 1058.32 395.75 1061.13H384.554C385.202 1058.32 387.47 1056.45 390.17 1056.45ZM418.364 1060.26C418.364 1056.34 415.52 1053.24 411.308 1053.24C409.112 1053.24 407.204 1054.14 405.908 1055.66V1053.64H402.272V1072H405.908V1061.09C405.908 1058.36 407.78 1056.52 410.408 1056.52C413 1056.52 414.728 1058.32 414.728 1060.98V1072H418.364V1060.26ZM428.801 1072.4C432.905 1072.4 435.533 1070.02 435.533 1066.85C435.533 1064.22 433.841 1062.46 430.457 1061.6L427.289 1060.77C425.561 1060.34 424.661 1059.54 424.661 1058.39C424.661 1057.1 425.705 1056.16 427.469 1056.16C429.341 1056.16 431.177 1057.24 431.609 1059.33H435.101C434.597 1055.87 431.789 1053.24 427.505 1053.24C423.797 1053.24 421.097 1055.4 421.097 1058.75C421.097 1061.38 422.789 1063.11 426.065 1063.94L429.449 1064.76C431.177 1065.23 431.969 1066.02 431.969 1067.14C431.969 1068.54 430.745 1069.48 428.765 1069.48C426.497 1069.48 424.697 1068.4 424.265 1066.31H420.773C421.421 1069.8 424.337 1072.4 428.801 1072.4ZM437.197 1066.92C437.197 1070.13 439.861 1072.4 443.461 1072.4C445.909 1072.4 447.961 1071.39 449.185 1069.7C449.653 1071.14 450.949 1072 452.713 1072H454.513V1068.8H453.577C452.857 1068.8 452.497 1068.44 452.497 1067.75V1059.47C452.497 1055.73 449.797 1053.32 445.657 1053.32C442.921 1053.32 440.509 1054.11 438.601 1055.73L440.221 1058.36C441.769 1057.13 443.389 1056.59 445.153 1056.59C447.565 1056.59 448.933 1057.85 448.933 1059.94V1061.13L443.209 1061.56C439.393 1061.81 437.197 1063.72 437.197 1066.92ZM440.689 1066.89C440.689 1065.38 441.733 1064.48 443.749 1064.33L448.933 1063.9V1065.41C448.933 1067.72 446.809 1069.55 444.181 1069.55C442.129 1069.55 440.689 1068.47 440.689 1066.89ZM472.926 1060.26C472.926 1056.34 470.082 1053.24 465.87 1053.24C463.674 1053.24 461.766 1054.14 460.47 1055.66V1053.64H456.834V1072H460.47V1061.09C460.47 1058.36 462.342 1056.52 464.97 1056.52C467.562 1056.52 469.29 1058.32 469.29 1060.98V1072H472.926V1060.26ZM486.64 1053.64L482.212 1066.56L478.54 1053.64H474.688L480.268 1072H483.544L488.08 1058.72L492.652 1072H495.928L501.472 1053.64H497.764L494.056 1066.56L489.664 1053.64H486.64ZM521.933 1062.82C521.933 1057.53 517.541 1053.24 512.069 1053.24C506.597 1053.24 502.205 1057.53 502.205 1062.82C502.205 1068.11 506.597 1072.43 512.069 1072.43C517.541 1072.43 521.933 1068.11 521.933 1062.82ZM518.297 1062.82C518.297 1066.38 515.525 1069.19 512.069 1069.19C508.613 1069.19 505.841 1066.38 505.841 1062.82C505.841 1059.29 508.613 1056.48 512.069 1056.48C515.525 1056.48 518.297 1059.29 518.297 1062.82ZM525.114 1067.9C523.89 1067.9 522.882 1068.9 522.882 1070.13C522.882 1071.39 523.89 1072.36 525.114 1072.36C526.374 1072.36 527.346 1071.39 527.346 1070.13C527.346 1068.9 526.374 1067.9 525.114 1067.9ZM548.056 1072V1046.8H544.42V1055.94C542.764 1054.25 540.46 1053.24 537.94 1053.24C532.54 1053.24 528.256 1057.53 528.256 1062.86C528.256 1068.15 532.504 1072.43 537.94 1072.43C540.496 1072.43 542.8 1071.39 544.456 1069.7V1072H548.056ZM544.492 1062.86C544.492 1066.38 541.684 1069.23 538.192 1069.23C534.7 1069.23 531.892 1066.38 531.892 1062.86C531.892 1059.29 534.7 1056.48 538.192 1056.48C541.684 1056.48 544.492 1059.29 544.492 1062.86ZM550.896 1062.82C550.896 1068.29 555.144 1072.4 560.652 1072.4C564 1072.4 566.736 1070.92 568.572 1068.47L565.944 1066.53C564.576 1068.36 562.776 1069.23 560.652 1069.23C557.556 1069.23 555.072 1067 554.568 1064.01H569.508V1062.82C569.508 1057.35 565.62 1053.28 560.328 1053.28C554.964 1053.28 550.896 1057.64 550.896 1062.82ZM560.256 1056.45C562.956 1056.45 565.224 1058.32 565.836 1061.13H554.64C555.288 1058.32 557.556 1056.45 560.256 1056.45ZM577.277 1072H580.337L588.113 1053.64H584.297L578.825 1067.1L573.353 1053.64H569.429L577.277 1072Z" fill="#AFAFAF"/>
<path d="M881.016 1010.03V1003.55H887.388V1000.64H881.016V994.3H878.1V1000.64H871.728V1003.55H878.1V1010.03H881.016ZM905.459 996.892C905.459 992.608 901.931 989.44 897.107 989.44C893.615 989.44 890.663 990.916 888.611 993.58L891.095 995.74C892.643 993.688 894.551 992.608 896.783 992.608C899.627 992.608 901.787 994.552 901.787 997.18C901.787 999.304 900.851 1000.67 898.763 1002.8L889.151 1012.73V1015H905.711V1011.8H894.587L901.355 1004.92C904.199 1002.04 905.495 999.88 905.459 996.892ZM916.098 989.44C912.39 989.44 909.69 990.988 907.71 993.436L910.158 995.56C911.562 993.76 913.47 992.536 915.81 992.536C918.582 992.536 920.598 994.3 920.598 996.604C920.598 998.8 918.942 1000.49 916.458 1000.49H913.434V1003.62H916.926C919.662 1003.62 921.498 1005.53 921.498 1007.87C921.498 1010.32 919.302 1012.3 916.242 1012.3C913.578 1012.3 911.382 1011.04 909.87 1009.1L907.314 1011.36C909.366 1013.85 912.39 1015.4 916.422 1015.4C921.498 1015.4 925.206 1011.94 925.206 1007.76C925.206 1005.17 923.622 1002.9 921.246 1001.82C923.118 1000.71 924.306 998.764 924.306 996.568C924.306 992.608 920.742 989.44 916.098 989.44ZM940.426 1015H944.062V1008.59H947.374V1005.35H944.062V989.8H939.382L927.43 1005.89V1008.59H940.426V1015ZM931.714 1005.35L940.426 993.544V1005.35H931.714ZM965.997 992.5V989.8H947.781V993.04H961.893L949.581 1015H953.793L965.997 992.5ZM968.301 1005.42C968.301 1011.47 972.117 1015.43 977.949 1015.43C983.781 1015.43 987.597 1011.47 987.597 1005.42V999.34C987.597 993.292 983.781 989.368 977.949 989.368C972.117 989.368 968.301 993.292 968.301 999.34V1005.42ZM983.961 1005.32C983.961 1009.6 981.657 1012.23 977.949 1012.23C974.241 1012.23 971.937 1009.56 971.937 1005.32V999.448C971.937 995.2 974.241 992.572 977.949 992.572C981.657 992.572 983.961 995.2 983.961 999.448V1005.32ZM1000.59 1015.4C1005.59 1015.4 1009.48 1011.58 1009.48 1006.68C1009.48 1002.15 1005.74 998.512 1001.06 998.512C998.106 998.512 995.694 999.88 994.362 1002.26V1001.61C994.362 995.812 997.134 992.5 1000.77 992.5C1002.86 992.5 1004.8 993.544 1006.17 995.272L1008.69 993.112C1006.67 990.736 1004.01 989.368 1000.77 989.368C994.686 989.368 990.834 994.516 990.834 1002.44V1003.23C990.834 1010.54 994.686 1015.4 1000.59 1015.4ZM1000.48 1012.26C997.422 1012.26 995.046 1009.92 995.046 1006.9C995.046 1003.84 997.458 1001.5 1000.48 1001.5C1003.58 1001.5 1005.99 1003.84 1005.99 1006.9C1005.99 1009.92 1003.58 1012.26 1000.48 1012.26ZM1020.46 989.404C1015.46 989.404 1011.57 993.22 1011.57 998.116C1011.57 1002.65 1015.32 1006.29 1020 1006.29C1022.95 1006.29 1025.36 1004.92 1026.69 1002.54V1003.19C1026.69 1008.99 1023.92 1012.3 1020.28 1012.3C1018.2 1012.3 1016.25 1011.26 1014.88 1009.53L1012.36 1011.69C1014.38 1014.06 1017.04 1015.43 1020.28 1015.43C1026.37 1015.43 1030.22 1010.28 1030.22 1002.36V1001.57C1030.22 994.264 1026.37 989.404 1020.46 989.404ZM1020.57 992.536C1023.63 992.536 1026.01 994.876 1026.01 997.9C1026.01 1000.96 1023.6 1003.3 1020.57 1003.3C1017.48 1003.3 1015.06 1000.96 1015.06 997.9C1015.06 994.876 1017.48 992.536 1020.57 992.536ZM1040.9 989.44C1037.19 989.44 1034.49 990.988 1032.51 993.436L1034.96 995.56C1036.37 993.76 1038.27 992.536 1040.61 992.536C1043.39 992.536 1045.4 994.3 1045.4 996.604C1045.4 998.8 1043.75 1000.49 1041.26 1000.49H1038.24V1003.62H1041.73C1044.47 1003.62 1046.3 1005.53 1046.3 1007.87C1046.3 1010.32 1044.11 1012.3 1041.05 1012.3C1038.38 1012.3 1036.19 1011.04 1034.67 1009.1L1032.12 1011.36C1034.17 1013.85 1037.19 1015.4 1041.23 1015.4C1046.3 1015.4 1050.01 1011.94 1050.01 1007.76C1050.01 1005.17 1048.43 1002.9 1046.05 1001.82C1047.92 1000.71 1049.11 998.764 1049.11 996.568C1049.11 992.608 1045.55 989.44 1040.9 989.44ZM1060.49 989.44C1056.78 989.44 1054.08 990.988 1052.1 993.436L1054.55 995.56C1055.95 993.76 1057.86 992.536 1060.2 992.536C1062.97 992.536 1064.99 994.3 1064.99 996.604C1064.99 998.8 1063.33 1000.49 1060.85 1000.49H1057.82V1003.62H1061.31C1064.05 1003.62 1065.89 1005.53 1065.89 1007.87C1065.89 1010.32 1063.69 1012.3 1060.63 1012.3C1057.97 1012.3 1055.77 1011.04 1054.26 1009.1L1051.7 1011.36C1053.75 1013.85 1056.78 1015.4 1060.81 1015.4C1065.89 1015.4 1069.59 1011.94 1069.59 1007.76C1069.59 1005.17 1068.01 1002.9 1065.63 1001.82C1067.51 1000.71 1068.69 998.764 1068.69 996.568C1068.69 992.608 1065.13 989.44 1060.49 989.44ZM1086.26 1011.76H1080.68V989.8H1072.08V993.04H1077.05V1011.76H1071.5V1015H1086.26V1011.76ZM1096.1 989.44C1092.39 989.44 1089.69 990.988 1087.71 993.436L1090.16 995.56C1091.56 993.76 1093.47 992.536 1095.81 992.536C1098.58 992.536 1100.6 994.3 1100.6 996.604C1100.6 998.8 1098.94 1000.49 1096.46 1000.49H1093.43V1003.62H1096.93C1099.66 1003.62 1101.5 1005.53 1101.5 1007.87C1101.5 1010.32 1099.3 1012.3 1096.24 1012.3C1093.58 1012.3 1091.38 1011.04 1089.87 1009.1L1087.31 1011.36C1089.37 1013.85 1092.39 1015.4 1096.42 1015.4C1101.5 1015.4 1105.21 1011.94 1105.21 1007.76C1105.21 1005.17 1103.62 1002.9 1101.25 1001.82C1103.12 1000.71 1104.31 998.764 1104.31 996.568C1104.31 992.608 1100.74 989.44 1096.1 989.44ZM1126.11 1007.94C1126.11 1005.24 1124.42 1002.98 1121.94 1001.9C1123.92 1000.78 1125.21 998.836 1125.21 996.532C1125.21 992.464 1121.72 989.44 1117.08 989.44C1112.4 989.44 1108.91 992.464 1108.91 996.532C1108.91 998.836 1110.2 1000.78 1112.18 1001.9C1109.7 1002.98 1108.01 1005.24 1108.01 1007.94C1108.01 1012.3 1111.89 1015.4 1117.08 1015.4C1122.23 1015.4 1126.11 1012.3 1126.11 1007.94ZM1117.08 992.5C1119.67 992.5 1121.58 994.156 1121.58 996.532C1121.58 998.836 1119.6 1000.53 1117.08 1000.53C1114.52 1000.53 1112.54 998.836 1112.54 996.532C1112.54 994.156 1114.49 992.5 1117.08 992.5ZM1117.08 1003.59C1120.1 1003.59 1122.37 1005.42 1122.37 1007.98C1122.37 1010.5 1120.14 1012.3 1117.08 1012.3C1113.98 1012.3 1111.75 1010.5 1111.75 1007.98C1111.75 1005.42 1114.02 1003.59 1117.08 1003.59ZM1136.67 989.44C1132.96 989.44 1130.26 990.988 1128.28 993.436L1130.73 995.56C1132.13 993.76 1134.04 992.536 1136.38 992.536C1139.15 992.536 1141.17 994.3 1141.17 996.604C1141.17 998.8 1139.51 1000.49 1137.03 1000.49H1134V1003.62H1137.5C1140.23 1003.62 1142.07 1005.53 1142.07 1007.87C1142.07 1010.32 1139.87 1012.3 1136.81 1012.3C1134.15 1012.3 1131.95 1011.04 1130.44 1009.1L1127.88 1011.36C1129.94 1013.85 1132.96 1015.4 1136.99 1015.4C1142.07 1015.4 1145.78 1011.94 1145.78 1007.76C1145.78 1005.17 1144.19 1002.9 1141.82 1001.82C1143.69 1000.71 1144.88 998.764 1144.88 996.568C1144.88 992.608 1141.31 989.44 1136.67 989.44ZM875.4 1061.02C875.4 1058.36 877.164 1056.52 879.684 1056.52C882.132 1056.52 883.788 1058.32 883.788 1060.91V1072H887.424V1061.02C887.424 1058.36 889.188 1056.52 891.708 1056.52C894.156 1056.52 895.812 1058.32 895.812 1060.91V1072H899.448V1060.16C899.448 1056.3 896.676 1053.24 892.608 1053.24C889.98 1053.24 887.784 1054.58 886.596 1056.7C885.516 1054.61 883.356 1053.24 880.584 1053.24C878.496 1053.24 876.66 1054.11 875.4 1055.58V1053.64H871.764V1072H875.4V1061.02ZM902.299 1062.82C902.299 1068.29 906.547 1072.4 912.055 1072.4C915.403 1072.4 918.139 1070.92 919.975 1068.47L917.347 1066.53C915.979 1068.36 914.179 1069.23 912.055 1069.23C908.959 1069.23 906.475 1067 905.971 1064.01H920.911V1062.82C920.911 1057.35 917.023 1053.28 911.731 1053.28C906.367 1053.28 902.299 1057.64 902.299 1062.82ZM911.659 1056.45C914.359 1056.45 916.627 1058.32 917.239 1061.13H906.043C906.691 1058.32 908.959 1056.45 911.659 1056.45ZM936.108 1069.52C937.98 1069.52 939.636 1068.65 940.752 1067.32C941.472 1068.58 942.768 1069.23 944.532 1069.23C947.304 1069.23 949.86 1066.74 949.86 1062.32C949.86 1055.3 944.352 1049.97 936.684 1049.97C929.376 1049.97 923.508 1055.76 923.508 1063C923.508 1070.27 929.304 1076.03 936.612 1076.03C939.996 1076.03 943.056 1074.88 945.36 1072.9L943.884 1071.35C941.94 1073.04 939.348 1074.02 936.468 1074.02C930.456 1074.02 925.74 1069.16 925.74 1063C925.74 1056.88 930.492 1051.98 936.54 1051.98C943.092 1051.98 947.592 1056.41 947.592 1062.39C947.592 1065.16 946.44 1067.07 944.82 1067.07C943.524 1067.07 942.84 1066.2 942.84 1065.16V1057.2H940.068V1058.43C939.024 1057.49 937.62 1056.92 936.108 1056.92C932.58 1056.92 929.772 1059.72 929.772 1063.25C929.772 1066.71 932.58 1069.52 936.108 1069.52ZM936.324 1067.03C934.236 1067.03 932.544 1065.34 932.544 1063.25C932.544 1061.09 934.236 1059.44 936.324 1059.44C938.412 1059.44 940.104 1061.09 940.104 1063.25C940.104 1065.34 938.412 1067.03 936.324 1067.03ZM959.852 1072.4C963.956 1072.4 966.584 1070.02 966.584 1066.85C966.584 1064.22 964.892 1062.46 961.508 1061.6L958.34 1060.77C956.612 1060.34 955.712 1059.54 955.712 1058.39C955.712 1057.1 956.756 1056.16 958.52 1056.16C960.392 1056.16 962.228 1057.24 962.66 1059.33H966.152C965.648 1055.87 962.84 1053.24 958.556 1053.24C954.848 1053.24 952.148 1055.4 952.148 1058.75C952.148 1061.38 953.84 1063.11 957.116 1063.94L960.5 1064.76C962.228 1065.23 963.02 1066.02 963.02 1067.14C963.02 1068.54 961.796 1069.48 959.816 1069.48C957.548 1069.48 955.748 1068.4 955.316 1066.31H951.824C952.472 1069.8 955.388 1072.4 959.852 1072.4ZM974.925 1072H978.417V1068.8H976.005C974.889 1068.8 974.205 1068.26 974.205 1067.25V1056.84H978.417V1053.64H974.205V1048.24H970.569V1053.64H967.077V1056.84H970.569V1068.04C970.569 1070.34 972.117 1072 974.925 1072ZM979.678 1062.82C979.678 1068.29 983.926 1072.4 989.434 1072.4C992.782 1072.4 995.518 1070.92 997.354 1068.47L994.726 1066.53C993.358 1068.36 991.558 1069.23 989.434 1069.23C986.338 1069.23 983.854 1067 983.35 1064.01H998.29V1062.82C998.29 1057.35 994.402 1053.28 989.11 1053.28C983.746 1053.28 979.678 1057.64 979.678 1062.82ZM989.038 1056.45C991.738 1056.45 994.006 1058.32 994.618 1061.13H983.422C984.07 1058.32 986.338 1056.45 989.038 1056.45ZM1001.14 1053.64V1079.24H1004.78V1069.7C1006.43 1071.39 1008.74 1072.4 1011.29 1072.4C1016.69 1072.4 1020.94 1068.15 1020.94 1062.82C1020.94 1057.53 1016.69 1053.21 1011.29 1053.21C1008.74 1053.21 1006.4 1054.25 1004.74 1055.94V1053.64H1001.14ZM1004.7 1062.82C1004.7 1059.29 1007.51 1056.45 1011.04 1056.45C1014.5 1056.45 1017.34 1059.29 1017.34 1062.82C1017.34 1066.35 1014.5 1069.19 1011.04 1069.19C1007.55 1069.19 1004.7 1066.35 1004.7 1062.82ZM1027.42 1061.09C1027.42 1058.36 1029.29 1056.52 1031.92 1056.52C1034.51 1056.52 1036.24 1058.32 1036.24 1060.98V1072H1039.87V1060.26C1039.87 1056.34 1037.03 1053.24 1032.85 1053.24C1030.66 1053.24 1028.71 1054.14 1027.42 1055.66V1046.8H1023.78V1072H1027.42V1061.09ZM1042.71 1062.82C1042.71 1068.29 1046.96 1072.4 1052.47 1072.4C1055.82 1072.4 1058.55 1070.92 1060.39 1068.47L1057.76 1066.53C1056.39 1068.36 1054.59 1069.23 1052.47 1069.23C1049.37 1069.23 1046.89 1067 1046.38 1064.01H1061.32V1062.82C1061.32 1057.35 1057.44 1053.28 1052.14 1053.28C1046.78 1053.28 1042.71 1057.64 1042.71 1062.82ZM1052.07 1056.45C1054.77 1056.45 1057.04 1058.32 1057.65 1061.13H1046.46C1047.1 1058.32 1049.37 1056.45 1052.07 1056.45ZM1080.27 1060.26C1080.27 1056.34 1077.42 1053.24 1073.21 1053.24C1071.01 1053.24 1069.11 1054.14 1067.81 1055.66V1053.64H1064.17V1072H1067.81V1061.09C1067.81 1058.36 1069.68 1056.52 1072.31 1056.52C1074.9 1056.52 1076.63 1058.32 1076.63 1060.98V1072H1080.27V1060.26ZM1090.7 1072.4C1094.81 1072.4 1097.44 1070.02 1097.44 1066.85C1097.44 1064.22 1095.74 1062.46 1092.36 1061.6L1089.19 1060.77C1087.46 1060.34 1086.56 1059.54 1086.56 1058.39C1086.56 1057.1 1087.61 1056.16 1089.37 1056.16C1091.24 1056.16 1093.08 1057.24 1093.51 1059.33H1097C1096.5 1055.87 1093.69 1053.24 1089.41 1053.24C1085.7 1053.24 1083 1055.4 1083 1058.75C1083 1061.38 1084.69 1063.11 1087.97 1063.94L1091.35 1064.76C1093.08 1065.23 1093.87 1066.02 1093.87 1067.14C1093.87 1068.54 1092.65 1069.48 1090.67 1069.48C1088.4 1069.48 1086.6 1068.4 1086.17 1066.31H1082.68C1083.32 1069.8 1086.24 1072.4 1090.7 1072.4ZM1099.1 1066.92C1099.1 1070.13 1101.76 1072.4 1105.36 1072.4C1107.81 1072.4 1109.86 1071.39 1111.09 1069.7C1111.56 1071.14 1112.85 1072 1114.62 1072H1116.42V1068.8H1115.48C1114.76 1068.8 1114.4 1068.44 1114.4 1067.75V1059.47C1114.4 1055.73 1111.7 1053.32 1107.56 1053.32C1104.82 1053.32 1102.41 1054.11 1100.5 1055.73L1102.12 1058.36C1103.67 1057.13 1105.29 1056.59 1107.06 1056.59C1109.47 1056.59 1110.84 1057.85 1110.84 1059.94V1061.13L1105.11 1061.56C1101.3 1061.81 1099.1 1063.72 1099.1 1066.92ZM1102.59 1066.89C1102.59 1065.38 1103.64 1064.48 1105.65 1064.33L1110.84 1063.9V1065.41C1110.84 1067.72 1108.71 1069.55 1106.08 1069.55C1104.03 1069.55 1102.59 1068.47 1102.59 1066.89ZM1134.83 1060.26C1134.83 1056.34 1131.98 1053.24 1127.77 1053.24C1125.58 1053.24 1123.67 1054.14 1122.37 1055.66V1053.64H1118.74V1072H1122.37V1061.09C1122.37 1058.36 1124.24 1056.52 1126.87 1056.52C1129.46 1056.52 1131.19 1058.32 1131.19 1060.98V1072H1134.83V1060.26ZM1148.54 1053.64L1144.11 1066.56L1140.44 1053.64H1136.59L1142.17 1072H1145.45L1149.98 1058.72L1154.55 1072H1157.83L1163.37 1053.64H1159.67L1155.96 1066.56L1151.57 1053.64H1148.54ZM1183.84 1062.82C1183.84 1057.53 1179.44 1053.24 1173.97 1053.24C1168.5 1053.24 1164.11 1057.53 1164.11 1062.82C1164.11 1068.11 1168.5 1072.43 1173.97 1072.43C1179.44 1072.43 1183.84 1068.11 1183.84 1062.82ZM1180.2 1062.82C1180.2 1066.38 1177.43 1069.19 1173.97 1069.19C1170.52 1069.19 1167.74 1066.38 1167.74 1062.82C1167.74 1059.29 1170.52 1056.48 1173.97 1056.48C1177.43 1056.48 1180.2 1059.29 1180.2 1062.82ZM1187.02 1067.9C1185.79 1067.9 1184.78 1068.9 1184.78 1070.13C1184.78 1071.39 1185.79 1072.36 1187.02 1072.36C1188.28 1072.36 1189.25 1071.39 1189.25 1070.13C1189.25 1068.9 1188.28 1067.9 1187.02 1067.9ZM1209.96 1072V1046.8H1206.32V1055.94C1204.67 1054.25 1202.36 1053.24 1199.84 1053.24C1194.44 1053.24 1190.16 1057.53 1190.16 1062.86C1190.16 1068.15 1194.41 1072.43 1199.84 1072.43C1202.4 1072.43 1204.7 1071.39 1206.36 1069.7V1072H1209.96ZM1206.39 1062.86C1206.39 1066.38 1203.59 1069.23 1200.09 1069.23C1196.6 1069.23 1193.79 1066.38 1193.79 1062.86C1193.79 1059.29 1196.6 1056.48 1200.09 1056.48C1203.59 1056.48 1206.39 1059.29 1206.39 1062.86ZM1212.8 1062.82C1212.8 1068.29 1217.05 1072.4 1222.55 1072.4C1225.9 1072.4 1228.64 1070.92 1230.47 1068.47L1227.85 1066.53C1226.48 1068.36 1224.68 1069.23 1222.55 1069.23C1219.46 1069.23 1216.97 1067 1216.47 1064.01H1231.41V1062.82C1231.41 1057.35 1227.52 1053.28 1222.23 1053.28C1216.87 1053.28 1212.8 1057.64 1212.8 1062.82ZM1222.16 1056.45C1224.86 1056.45 1227.13 1058.32 1227.74 1061.13H1216.54C1217.19 1058.32 1219.46 1056.45 1222.16 1056.45ZM1239.18 1072H1242.24L1250.02 1053.64H1246.2L1240.73 1067.1L1235.26 1053.64H1231.33L1239.18 1072Z" fill="#AFAFAF"/>
<path d="M1531.33 988.8H1527.95L1521.43 1008.46L1516.39 988.8H1512.36L1519.38 1014H1523.12L1529.6 994.488L1536.05 1014H1539.79L1546.81 988.8H1542.89L1537.85 1008.46L1531.33 988.8ZM1546.51 1008.92C1546.51 1012.13 1549.17 1014.4 1552.77 1014.4C1555.22 1014.4 1557.27 1013.39 1558.5 1011.7C1558.97 1013.14 1560.26 1014 1562.03 1014H1563.83V1010.8H1562.89C1562.17 1010.8 1561.81 1010.44 1561.81 1009.75V1001.47C1561.81 997.728 1559.11 995.316 1554.97 995.316C1552.23 995.316 1549.82 996.108 1547.91 997.728L1549.53 1000.36C1551.08 999.132 1552.7 998.592 1554.47 998.592C1556.88 998.592 1558.25 999.852 1558.25 1001.94V1003.13L1552.52 1003.56C1548.71 1003.81 1546.51 1005.72 1546.51 1008.92ZM1550 1008.89C1550 1007.38 1551.05 1006.48 1553.06 1006.33L1558.25 1005.9V1007.41C1558.25 1009.72 1556.12 1011.55 1553.49 1011.55C1551.44 1011.55 1550 1010.47 1550 1008.89ZM1584.7 995.64H1581.06V997.908C1579.4 996.252 1577.17 995.244 1574.65 995.244C1569.36 995.244 1565.11 999.42 1565.11 1004.68C1565.11 1010 1569.32 1014.18 1574.65 1014.18C1577.14 1014.18 1579.37 1013.21 1581.02 1011.59V1014.29C1581.02 1016.81 1579.73 1018.14 1577.1 1018.14H1573.28V1021.24H1577.89C1582.07 1021.24 1584.7 1018.68 1584.7 1014.58V995.64ZM1568.71 1004.68C1568.71 1001.26 1571.48 998.448 1574.9 998.448C1578.32 998.448 1581.1 1001.22 1581.1 1004.68C1581.1 1008.17 1578.36 1010.98 1574.9 1010.98C1571.48 1010.98 1568.71 1008.2 1568.71 1004.68ZM1587.54 1004.82C1587.54 1010.29 1591.79 1014.4 1597.3 1014.4C1600.64 1014.4 1603.38 1012.92 1605.22 1010.47L1602.59 1008.53C1601.22 1010.36 1599.42 1011.23 1597.3 1011.23C1594.2 1011.23 1591.72 1009 1591.21 1006.01H1606.15V1004.82C1606.15 999.348 1602.26 995.28 1596.97 995.28C1591.61 995.28 1587.54 999.636 1587.54 1004.82ZM1596.9 998.448C1599.6 998.448 1601.87 1000.32 1602.48 1003.13H1591.28C1591.93 1000.32 1594.2 998.448 1596.9 998.448ZM1618.25 998.88V995.496H1616.99C1614.98 995.496 1613.5 996.432 1612.6 997.908V995.64H1609V1014H1612.64V1003.56C1612.64 1000.72 1614.37 998.88 1616.74 998.88H1618.25ZM1627.38 1006.3C1627.81 1011.12 1631.7 1014.36 1637.03 1014.36C1642.25 1014.36 1645.63 1011.26 1645.63 1007.05C1645.63 1003.52 1643.65 1001.4 1639.22 1000.18L1634.97 999.024C1632.63 998.376 1631.34 997.188 1631.34 995.352C1631.34 993.048 1633.25 991.608 1635.8 991.608C1638.9 991.608 1640.81 993.372 1641.35 996.36H1645.02C1644.41 991.608 1640.84 988.404 1635.84 988.404C1631.12 988.404 1627.59 991.284 1627.59 995.64C1627.59 999.096 1629.72 1001.33 1633.93 1002.48L1638.11 1003.63C1640.59 1004.32 1641.89 1005.54 1641.89 1007.41C1641.89 1009.64 1640.12 1011.16 1637.03 1011.16C1633.68 1011.16 1631.52 1009.36 1631.05 1006.3H1627.38ZM1667.77 1004.82C1667.77 999.528 1663.38 995.244 1657.91 995.244C1652.44 995.244 1648.04 999.528 1648.04 1004.82C1648.04 1010.11 1652.44 1014.43 1657.91 1014.43C1663.38 1014.43 1667.77 1010.11 1667.77 1004.82ZM1664.14 1004.82C1664.14 1008.38 1661.36 1011.19 1657.91 1011.19C1654.45 1011.19 1651.68 1008.38 1651.68 1004.82C1651.68 1001.29 1654.45 998.484 1657.91 998.484C1661.36 998.484 1664.14 1001.29 1664.14 1004.82ZM1673.58 1004.86C1673.58 1001.26 1676.36 998.484 1679.81 998.484C1681.94 998.484 1683.77 999.528 1684.96 1001.15L1687.62 999.24C1685.82 996.828 1683.27 995.244 1679.81 995.244C1674.23 995.244 1669.95 999.528 1669.95 1004.86C1669.95 1010.15 1674.23 1014.43 1679.81 1014.43C1683.27 1014.43 1685.82 1012.85 1687.62 1010.47L1684.96 1008.53C1683.77 1010.18 1681.94 1011.23 1679.81 1011.23C1676.36 1011.23 1673.58 1008.38 1673.58 1004.86ZM1691.7 993.084C1692.89 993.084 1693.82 992.112 1693.82 990.888C1693.82 989.7 1692.89 988.728 1691.7 988.728C1690.47 988.728 1689.5 989.7 1689.5 990.888C1689.5 992.112 1690.47 993.084 1691.7 993.084ZM1693.5 995.64H1689.86V1014H1693.5V995.64ZM1696.17 1008.92C1696.17 1012.13 1698.83 1014.4 1702.43 1014.4C1704.88 1014.4 1706.93 1013.39 1708.16 1011.7C1708.63 1013.14 1709.92 1014 1711.69 1014H1713.49V1010.8H1712.55C1711.83 1010.8 1711.47 1010.44 1711.47 1009.75V1001.47C1711.47 997.728 1708.77 995.316 1704.63 995.316C1701.89 995.316 1699.48 996.108 1697.57 997.728L1699.19 1000.36C1700.74 999.132 1702.36 998.592 1704.13 998.592C1706.54 998.592 1707.91 999.852 1707.91 1001.94V1003.13L1702.18 1003.56C1698.37 1003.81 1696.17 1005.72 1696.17 1008.92ZM1699.66 1008.89C1699.66 1007.38 1700.71 1006.48 1702.72 1006.33L1707.91 1005.9V1007.41C1707.91 1009.72 1705.78 1011.55 1703.15 1011.55C1701.1 1011.55 1699.66 1010.47 1699.66 1008.89ZM1719.44 1014V988.8H1715.81V1014H1719.44ZM1532.66 1052.64H1529.03V1054.91C1527.37 1053.25 1525.14 1052.24 1522.62 1052.24C1517.33 1052.24 1513.08 1056.42 1513.08 1061.68C1513.08 1067 1517.29 1071.18 1522.62 1071.18C1525.1 1071.18 1527.34 1070.21 1528.99 1068.59V1071.29C1528.99 1073.81 1527.7 1075.14 1525.07 1075.14H1521.25V1078.24H1525.86C1530.04 1078.24 1532.66 1075.68 1532.66 1071.58V1052.64ZM1516.68 1061.68C1516.68 1058.26 1519.45 1055.45 1522.87 1055.45C1526.29 1055.45 1529.06 1058.22 1529.06 1061.68C1529.06 1065.17 1526.33 1067.98 1522.87 1067.98C1519.45 1067.98 1516.68 1065.2 1516.68 1061.68ZM1538.03 1050.08C1539.22 1050.08 1540.15 1049.11 1540.15 1047.89C1540.15 1046.7 1539.22 1045.73 1538.03 1045.73C1536.81 1045.73 1535.83 1046.7 1535.83 1047.89C1535.83 1049.11 1536.81 1050.08 1538.03 1050.08ZM1539.83 1052.64H1536.19V1071H1539.83V1052.64ZM1549.88 1071H1553.37V1067.8H1550.96C1549.85 1067.8 1549.16 1067.26 1549.16 1066.25V1055.84H1553.37V1052.64H1549.16V1047.24H1545.53V1052.64H1542.03V1055.84H1545.53V1067.04C1545.53 1069.34 1547.07 1071 1549.88 1071ZM1559.2 1060.09C1559.2 1057.36 1561.07 1055.52 1563.7 1055.52C1566.29 1055.52 1568.02 1057.32 1568.02 1059.98V1071H1571.66V1059.26C1571.66 1055.34 1568.81 1052.24 1564.64 1052.24C1562.44 1052.24 1560.5 1053.14 1559.2 1054.66V1045.8H1555.56V1071H1559.2V1060.09ZM1575.18 1064.38C1575.18 1068.3 1578.03 1071.36 1582.24 1071.36C1584.43 1071.36 1586.38 1070.46 1587.64 1068.95V1071H1591.27V1052.64H1587.64V1063.55C1587.64 1066.25 1585.77 1068.16 1583.14 1068.16C1580.55 1068.16 1578.82 1066.25 1578.82 1063.69V1052.64H1575.18V1064.38ZM1594.8 1071H1598.4V1068.7C1600.06 1070.39 1602.4 1071.43 1604.95 1071.43C1610.35 1071.43 1614.6 1067.15 1614.6 1061.86C1614.6 1056.53 1610.35 1052.24 1604.95 1052.24C1602.4 1052.24 1600.09 1053.29 1598.44 1054.98V1045.8H1594.8V1071ZM1598.36 1061.86C1598.36 1058.29 1601.21 1055.48 1604.7 1055.48C1608.16 1055.48 1611 1058.29 1611 1061.86C1611 1065.38 1608.16 1068.23 1604.7 1068.23C1601.17 1068.23 1598.36 1065.38 1598.36 1061.86ZM1617.76 1066.9C1616.54 1066.9 1615.53 1067.9 1615.53 1069.13C1615.53 1070.39 1616.54 1071.36 1617.76 1071.36C1619.02 1071.36 1619.99 1070.39 1619.99 1069.13C1619.99 1067.9 1619.02 1066.9 1617.76 1066.9ZM1624.54 1061.86C1624.54 1058.26 1627.31 1055.48 1630.77 1055.48C1632.89 1055.48 1634.73 1056.53 1635.92 1058.15L1638.58 1056.24C1636.78 1053.83 1634.22 1052.24 1630.77 1052.24C1625.19 1052.24 1620.9 1056.53 1620.9 1061.86C1620.9 1067.15 1625.19 1071.43 1630.77 1071.43C1634.22 1071.43 1636.78 1069.85 1638.58 1067.47L1635.92 1065.53C1634.73 1067.18 1632.89 1068.23 1630.77 1068.23C1627.31 1068.23 1624.54 1065.38 1624.54 1061.86ZM1659.23 1061.82C1659.23 1056.53 1654.84 1052.24 1649.37 1052.24C1643.89 1052.24 1639.5 1056.53 1639.5 1061.82C1639.5 1067.11 1643.89 1071.43 1649.37 1071.43C1654.84 1071.43 1659.23 1067.11 1659.23 1061.82ZM1655.59 1061.82C1655.59 1065.38 1652.82 1068.19 1649.37 1068.19C1645.91 1068.19 1643.14 1065.38 1643.14 1061.82C1643.14 1058.29 1645.91 1055.48 1649.37 1055.48C1652.82 1055.48 1655.59 1058.29 1655.59 1061.82ZM1665.72 1060.02C1665.72 1057.36 1667.49 1055.52 1670.01 1055.52C1672.46 1055.52 1674.11 1057.32 1674.11 1059.91V1071H1677.75V1060.02C1677.75 1057.36 1679.51 1055.52 1682.03 1055.52C1684.48 1055.52 1686.14 1057.32 1686.14 1059.91V1071H1689.77V1059.16C1689.77 1055.3 1687 1052.24 1682.93 1052.24C1680.3 1052.24 1678.11 1053.58 1676.92 1055.7C1675.84 1053.61 1673.68 1052.24 1670.91 1052.24C1668.82 1052.24 1666.98 1053.11 1665.72 1054.58V1052.64H1662.09V1071H1665.72V1060.02ZM1695.43 1071L1706.37 1045.8H1702.7L1691.76 1071H1695.43ZM1712.35 1071.4C1716.45 1071.4 1719.08 1069.02 1719.08 1065.85C1719.08 1063.22 1717.39 1061.46 1714 1060.6L1710.84 1059.77C1709.11 1059.34 1708.21 1058.54 1708.21 1057.39C1708.21 1056.1 1709.25 1055.16 1711.02 1055.16C1712.89 1055.16 1714.72 1056.24 1715.16 1058.33H1718.65C1718.14 1054.87 1715.34 1052.24 1711.05 1052.24C1707.34 1052.24 1704.64 1054.4 1704.64 1057.75C1704.64 1060.38 1706.34 1062.11 1709.61 1062.94L1713 1063.76C1714.72 1064.23 1715.52 1065.02 1715.52 1066.14C1715.52 1067.54 1714.29 1068.48 1712.31 1068.48C1710.04 1068.48 1708.24 1067.4 1707.81 1065.31H1704.32C1704.97 1068.8 1707.88 1071.4 1712.35 1071.4ZM1727.42 1071H1730.91V1067.8H1728.5C1727.38 1067.8 1726.7 1067.26 1726.7 1066.25V1055.84H1730.91V1052.64H1726.7V1047.24H1723.06V1052.64H1719.57V1055.84H1723.06V1067.04C1723.06 1069.34 1724.61 1071 1727.42 1071ZM1732.17 1061.82C1732.17 1067.29 1736.42 1071.4 1741.93 1071.4C1745.28 1071.4 1748.01 1069.92 1749.85 1067.47L1747.22 1065.53C1745.85 1067.36 1744.05 1068.23 1741.93 1068.23C1738.83 1068.23 1736.35 1066 1735.85 1063.01H1750.79V1061.82C1750.79 1056.35 1746.9 1052.28 1741.61 1052.28C1736.24 1052.28 1732.17 1056.64 1732.17 1061.82ZM1741.53 1055.45C1744.23 1055.45 1746.5 1057.32 1747.11 1060.13H1735.92C1736.57 1057.32 1738.83 1055.45 1741.53 1055.45ZM1753.64 1052.64V1078.24H1757.27V1068.7C1758.93 1070.39 1761.23 1071.4 1763.79 1071.4C1769.19 1071.4 1773.44 1067.15 1773.44 1061.82C1773.44 1056.53 1769.19 1052.21 1763.79 1052.21C1761.23 1052.21 1758.89 1053.25 1757.24 1054.94V1052.64H1753.64ZM1757.2 1061.82C1757.2 1058.29 1760.01 1055.45 1763.54 1055.45C1766.99 1055.45 1769.84 1058.29 1769.84 1061.82C1769.84 1065.35 1766.99 1068.19 1763.54 1068.19C1760.04 1068.19 1757.2 1065.35 1757.2 1061.82ZM1779.91 1060.09C1779.91 1057.36 1781.78 1055.52 1784.41 1055.52C1787 1055.52 1788.73 1057.32 1788.73 1059.98V1071H1792.37V1059.26C1792.37 1055.34 1789.52 1052.24 1785.35 1052.24C1783.15 1052.24 1781.21 1053.14 1779.91 1054.66V1045.8H1776.28V1071H1779.91V1060.09ZM1795.21 1061.82C1795.21 1067.29 1799.46 1071.4 1804.96 1071.4C1808.31 1071.4 1811.05 1069.92 1812.88 1067.47L1810.26 1065.53C1808.89 1067.36 1807.09 1068.23 1804.96 1068.23C1801.87 1068.23 1799.38 1066 1798.88 1063.01H1813.82V1061.82C1813.82 1056.35 1809.93 1052.28 1804.64 1052.28C1799.28 1052.28 1795.21 1056.64 1795.21 1061.82ZM1804.57 1055.45C1807.27 1055.45 1809.54 1057.32 1810.15 1060.13H1798.95C1799.6 1057.32 1801.87 1055.45 1804.57 1055.45ZM1832.76 1059.26C1832.76 1055.34 1829.92 1052.24 1825.71 1052.24C1823.51 1052.24 1821.6 1053.14 1820.31 1054.66V1052.64H1816.67V1071H1820.31V1060.09C1820.31 1057.36 1822.18 1055.52 1824.81 1055.52C1827.4 1055.52 1829.13 1057.32 1829.13 1059.98V1071H1832.76V1059.26ZM1843.2 1071.4C1847.3 1071.4 1849.93 1069.02 1849.93 1065.85C1849.93 1063.22 1848.24 1061.46 1844.86 1060.6L1841.69 1059.77C1839.96 1059.34 1839.06 1058.54 1839.06 1057.39C1839.06 1056.1 1840.1 1055.16 1841.87 1055.16C1843.74 1055.16 1845.58 1056.24 1846.01 1058.33H1849.5C1849 1054.87 1846.19 1052.24 1841.9 1052.24C1838.2 1052.24 1835.5 1054.4 1835.5 1057.75C1835.5 1060.38 1837.19 1062.11 1840.46 1062.94L1843.85 1063.76C1845.58 1064.23 1846.37 1065.02 1846.37 1066.14C1846.37 1067.54 1845.14 1068.48 1843.16 1068.48C1840.9 1068.48 1839.1 1067.4 1838.66 1065.31H1835.17C1835.82 1068.8 1838.74 1071.4 1843.2 1071.4ZM1851.6 1065.92C1851.6 1069.13 1854.26 1071.4 1857.86 1071.4C1860.31 1071.4 1862.36 1070.39 1863.58 1068.7C1864.05 1070.14 1865.35 1071 1867.11 1071H1868.91V1067.8H1867.98C1867.26 1067.8 1866.9 1067.44 1866.9 1066.75V1058.47C1866.9 1054.73 1864.2 1052.32 1860.06 1052.32C1857.32 1052.32 1854.91 1053.11 1853 1054.73L1854.62 1057.36C1856.17 1056.13 1857.79 1055.59 1859.55 1055.59C1861.96 1055.59 1863.33 1056.85 1863.33 1058.94V1060.13L1857.61 1060.56C1853.79 1060.81 1851.6 1062.72 1851.6 1065.92ZM1855.09 1065.89C1855.09 1064.38 1856.13 1063.48 1858.15 1063.33L1863.33 1062.9V1064.41C1863.33 1066.72 1861.21 1068.55 1858.58 1068.55C1856.53 1068.55 1855.09 1067.47 1855.09 1065.89ZM1887.32 1059.26C1887.32 1055.34 1884.48 1052.24 1880.27 1052.24C1878.07 1052.24 1876.16 1053.14 1874.87 1054.66V1052.64H1871.23V1071H1874.87V1060.09C1874.87 1057.36 1876.74 1055.52 1879.37 1055.52C1881.96 1055.52 1883.69 1057.32 1883.69 1059.98V1071H1887.32V1059.26ZM1901.04 1052.64L1896.61 1065.56L1892.94 1052.64H1889.09L1894.67 1071H1897.94L1902.48 1057.72L1907.05 1071H1910.33L1915.87 1052.64H1912.16L1908.45 1065.56L1904.06 1052.64H1901.04ZM1936.33 1061.82C1936.33 1056.53 1931.94 1052.24 1926.47 1052.24C1921 1052.24 1916.6 1056.53 1916.6 1061.82C1916.6 1067.11 1921 1071.43 1926.47 1071.43C1931.94 1071.43 1936.33 1067.11 1936.33 1061.82ZM1932.7 1061.82C1932.7 1065.38 1929.92 1068.19 1926.47 1068.19C1923.01 1068.19 1920.24 1065.38 1920.24 1061.82C1920.24 1058.29 1923.01 1055.48 1926.47 1055.48C1929.92 1055.48 1932.7 1058.29 1932.7 1061.82Z" fill="#AFAFAF"/>
<path d="M1468 986H1456C1455.47 986.001 1454.96 986.211 1454.59 986.586C1454.21 986.961 1454 987.47 1454 988V998H1444C1443.47 998.001 1442.96 998.211 1442.59 998.586C1442.21 998.961 1442 999.47 1442 1000V1014H1470V988C1470 987.47 1469.79 986.961 1469.41 986.586C1469.04 986.212 1468.53 986.001 1468 986ZM1449 1012V1005H1453V1012H1449ZM1468 1012H1455V1004C1455 1003.73 1454.89 1003.48 1454.71 1003.29C1454.52 1003.11 1454.27 1003 1454 1003H1448C1447.73 1003 1447.48 1003.11 1447.29 1003.29C1447.11 1003.48 1447 1003.73 1447 1004V1012H1444V1000H1456V988H1468V1012Z" fill="#AFAFAF"/>
<path fill-rule="evenodd" clip-rule="evenodd" d="M1456 1048C1452.67 1048 1449.46 1049.18 1446.93 1051.34C1444.4 1053.49 1442.71 1056.48 1442.18 1059.76C1441.65 1063.04 1442.3 1066.4 1444.02 1069.24C1445.74 1072.09 1448.42 1074.23 1451.57 1075.28C1452.27 1075.41 1452.57 1074.98 1452.57 1074.61C1452.57 1074.24 1452.57 1073.4 1452.57 1072.23C1448.68 1073.07 1447.86 1070.35 1447.86 1070.35C1447.58 1069.49 1447.01 1068.76 1446.24 1068.3C1444.97 1067.44 1446.34 1067.45 1446.34 1067.45C1446.78 1067.51 1447.21 1067.68 1447.58 1067.93C1447.95 1068.18 1448.26 1068.51 1448.48 1068.9C1448.87 1069.59 1449.51 1070.11 1450.28 1070.32C1451.04 1070.54 1451.86 1070.45 1452.56 1070.06C1452.61 1069.35 1452.93 1068.69 1453.44 1068.19C1450.34 1067.83 1447.07 1066.63 1447.07 1061.27C1447.05 1059.88 1447.56 1058.53 1448.51 1057.51C1448.08 1056.3 1448.13 1054.98 1448.65 1053.81C1448.65 1053.81 1449.82 1053.43 1452.5 1055.24C1454.79 1054.62 1457.21 1054.62 1459.5 1055.24C1462.17 1053.43 1463.34 1053.81 1463.34 1053.81C1463.86 1054.98 1463.91 1056.3 1463.48 1057.51C1464.42 1058.53 1464.94 1059.88 1464.92 1061.27C1464.92 1066.65 1461.65 1067.83 1458.53 1068.18C1458.86 1068.52 1459.12 1068.93 1459.28 1069.37C1459.45 1069.82 1459.51 1070.3 1459.48 1070.77C1459.48 1072.64 1459.48 1074.15 1459.48 1074.61C1459.48 1075.07 1459.73 1075.42 1460.48 1075.28C1463.64 1074.23 1466.31 1072.08 1468.03 1069.23C1469.75 1066.38 1470.4 1063.02 1469.86 1059.73C1469.32 1056.45 1467.63 1053.46 1465.09 1051.31C1462.55 1049.16 1459.33 1047.99 1456 1048Z" fill="#AFAFAF"/>
<path d="M826 1052H802C801.47 1052 800.961 1052.21 800.586 1052.59C800.211 1052.96 800 1053.47 800 1054V1070C800 1070.53 800.211 1071.04 800.586 1071.41C800.961 1071.79 801.47 1072 802 1072H826C826.53 1072 827.039 1071.79 827.414 1071.41C827.789 1071.04 828 1070.53 828 1070V1054C828 1053.47 827.789 1052.96 827.414 1052.59C827.039 1052.21 826.53 1052 826 1052ZM823.8 1054L814 1060.78L804.2 1054H823.8ZM802 1070V1054.91L813.43 1062.82C813.597 1062.94 813.796 1063 814 1063C814.204 1063 814.403 1062.94 814.57 1062.82L826 1054.91V1070H802Z" fill="#AFAFAF"/>
<path d="M825.01 1014H824.84C805.19 1012.87 802.4 996.29 802.01 991.23C801.978 990.837 802.025 990.441 802.146 990.065C802.268 989.69 802.463 989.342 802.719 989.042C802.976 988.742 803.289 988.496 803.641 988.317C803.992 988.138 804.376 988.03 804.77 988H810.28C810.68 988 811.072 988.12 811.403 988.344C811.735 988.569 811.991 988.888 812.14 989.26L813.66 993C813.806 993.364 813.842 993.762 813.764 994.146C813.686 994.53 813.496 994.883 813.22 995.16L811.09 997.31C811.422 999.201 812.328 1000.94 813.683 1002.3C815.039 1003.66 816.78 1004.57 818.67 1004.91L820.84 1002.76C821.121 1002.49 821.477 1002.3 821.863 1002.23C822.249 1002.16 822.648 1002.2 823.01 1002.35L826.78 1003.86C827.146 1004.01 827.459 1004.27 827.678 1004.6C827.897 1004.93 828.012 1005.32 828.01 1005.72V1011C828.01 1011.8 827.693 1012.56 827.131 1013.12C826.568 1013.68 825.805 1014 825.01 1014ZM805.01 990C804.744 990 804.49 990.105 804.302 990.293C804.115 990.48 804.01 990.735 804.01 991V991.08C804.47 997 807.42 1011 824.95 1012C825.081 1012.01 825.213 1011.99 825.337 1011.95C825.461 1011.9 825.576 1011.84 825.675 1011.75C825.773 1011.66 825.853 1011.56 825.911 1011.44C825.968 1011.32 826.002 1011.19 826.01 1011.06V1005.72L822.24 1004.21L819.37 1007.06L818.89 1007C810.19 1005.91 809.01 997.21 809.01 997.12L808.95 996.64L811.79 993.77L810.29 990H805.01Z" fill="#AFAFAF"/>
<path d="M201 988C198.231 988 195.524 988.821 193.222 990.359C190.92 991.898 189.125 994.084 188.066 996.642C187.006 999.201 186.729 1002.02 187.269 1004.73C187.809 1007.45 189.143 1009.94 191.101 1011.9C193.058 1013.86 195.553 1015.19 198.269 1015.73C200.984 1016.27 203.799 1015.99 206.358 1014.93C208.916 1013.87 211.102 1012.08 212.641 1009.78C214.179 1007.48 215 1004.77 215 1002C215 998.287 213.525 994.726 210.899 992.101C208.274 989.475 204.713 988 201 988ZM213 1001H207C206.883 997.317 205.929 993.709 204.21 990.45C206.579 991.098 208.691 992.457 210.263 994.343C211.835 996.23 212.79 998.553 213 1001ZM201 1014C200.777 1014.01 200.553 1014.01 200.33 1014C198.258 1010.7 197.109 1006.9 197 1003H205C204.901 1006.9 203.761 1010.69 201.7 1014C201.467 1014.02 201.233 1014.02 201 1014ZM197 1001C197.099 997.105 198.239 993.307 200.3 990C200.745 989.95 201.195 989.95 201.64 990C203.722 993.301 204.882 997.099 205 1001H197ZM197.76 990.45C196.051 993.712 195.107 997.319 195 1001H189C189.21 998.553 190.165 996.23 191.737 994.343C193.309 992.457 195.421 991.098 197.79 990.45H197.76ZM189.05 1003H195.05C195.154 1006.68 196.095 1010.29 197.8 1013.55C195.439 1012.9 193.335 1011.53 191.771 1009.65C190.206 1007.76 189.257 1005.44 189.05 1003ZM204.21 1013.55C205.929 1010.29 206.883 1006.68 207 1003H213C212.79 1005.45 211.835 1007.77 210.263 1009.66C208.691 1011.54 206.579 1012.9 204.21 1013.55Z" fill="#AFAFAF"/>
<path d="M201 1044C198.231 1044 195.524 1044.82 193.222 1046.36C190.92 1047.9 189.125 1050.08 188.066 1052.64C187.006 1055.2 186.729 1058.02 187.269 1060.73C187.809 1063.45 189.143 1065.94 191.101 1067.9C193.058 1069.86 195.553 1071.19 198.269 1071.73C200.984 1072.27 203.799 1071.99 206.358 1070.93C208.916 1069.87 211.102 1068.08 212.641 1065.78C214.179 1063.48 215 1060.77 215 1058C215 1054.29 213.525 1050.73 210.899 1048.1C208.274 1045.47 204.713 1044 201 1044ZM213 1057H207C206.883 1053.32 205.929 1049.71 204.21 1046.45C206.579 1047.1 208.691 1048.46 210.263 1050.34C211.835 1052.23 212.79 1054.55 213 1057ZM201 1070C200.777 1070.01 200.553 1070.01 200.33 1070C198.258 1066.7 197.109 1062.9 197 1059H205C204.901 1062.9 203.761 1066.69 201.7 1070C201.467 1070.02 201.233 1070.02 201 1070ZM197 1057C197.099 1053.1 198.239 1049.31 200.3 1046C200.745 1045.95 201.195 1045.95 201.64 1046C203.722 1049.3 204.882 1053.1 205 1057H197ZM197.76 1046.45C196.051 1049.71 195.107 1053.32 195 1057H189C189.21 1054.55 190.165 1052.23 191.737 1050.34C193.309 1048.46 195.421 1047.1 197.79 1046.45H197.76ZM189.05 1059H195.05C195.154 1062.68 196.095 1066.29 197.8 1069.55C195.439 1068.9 193.335 1067.53 191.771 1065.65C190.206 1063.76 189.257 1061.44 189.05 1059ZM204.21 1069.55C205.929 1066.29 206.883 1062.68 207 1059H213C212.79 1061.45 211.835 1063.77 210.263 1065.66C208.691 1067.54 206.579 1068.9 204.21 1069.55Z" fill="#AFAFAF"/>
<path d="M3114.62 499L3049 564.625L3035.78 551.406L3088.09 499L3035.78 446.594L3049 433.375L3114.62 499Z" fill="#7DABA0"/>
<path d="M2833.38 499L2899 433.375L2912.22 446.594L2859.91 499L2912.22 551.406L2899 564.625L2833.38 499Z" fill="#7DABA0"/>
<path d="M2989.36 405.259L2940.42 587.909L2958.53 592.762L3007.48 410.112L2989.36 405.259Z" fill="#7DABA0"/>
</svg>
